<svg xmlns="http://www.w3.org/2000/svg" viewBox="0 0 1214.22 247"><defs><style>.cls-1{fill:#157d8b;}.cls-2{fill:#fff;}.cls-3{fill:#313131;}</style></defs><title>Asset 2</title><g id="Layer_2" data-name="Layer 2"><g id="Layer_1-2" data-name="Layer 1"><circle class="cls-1" cx="123.5" cy="123.5" r="123.5"/><rect class="cls-2" x="96.26" y="146.53" width="4.43" height="35.28"/><path class="cls-2" d="M119.48,99.31a49.7,49.7,0,0,0-20.37-4.17,50.8,50.8,0,0,0-20.56,4.18,8,8,0,0,0-4.73,7.3v33.73A10.86,10.86,0,0,0,82,150.86l.45.12V182.7h4.52V148.94a2.26,2.26,0,0,0-2.26-2.26,6.34,6.34,0,0,1-6.33-6.33V106.62a3.43,3.43,0,0,1,2-3.16,46.11,46.11,0,0,1,18.73-3.8,45.07,45.07,0,0,1,18.51,3.77,3.45,3.45,0,0,1,2,3.15v33.77a6.34,6.34,0,0,1-6.33,6.33,2.26,2.26,0,0,0-2.26,2.26V182.7h4.53V151l.45-.12a10.86,10.86,0,0,0,8.14-10.51V106.58A8,8,0,0,0,119.48,99.31Z"/><path class="cls-2" d="M99,94.9c7.82,0,13.71-7.13,13.71-16.58a13.72,13.72,0,0,0-27.43,0C85.27,87.77,91.17,94.9,99,94.9Zm0-25.77a9.2,9.2,0,0,1,9.19,9.19c0,7-3.87,12.06-9.19,12.06S89.8,85.31,89.8,78.32A9.2,9.2,0,0,1,99,69.13Z"/><path class="cls-2" d="M142.56,97.3a6.79,6.79,0,0,1-6.79-6.78V71.67a6.79,6.79,0,0,1,6.79-6.78H161.4a6.12,6.12,0,0,1,1,.09l-4.06,4h-15.8a2.64,2.64,0,0,0-2.64,2.64V90.52a2.64,2.64,0,0,0,2.64,2.64H161.4A2.64,2.64,0,0,0,164,90.52V84.14L168.19,80V90.52a6.79,6.79,0,0,1-6.79,6.78Z"/><path class="cls-2" d="M151.29,77.07A2.36,2.36,0,0,0,148,80.41l4.71,4.71a2.35,2.35,0,0,0,3.33,0l16.49-16.49a2.35,2.35,0,0,0-3.33-3.33L154.34,80.12Z"/><path class="cls-2" d="M142.56,139.71a6.8,6.8,0,0,1-6.79-6.79V114.08a6.8,6.8,0,0,1,6.79-6.79H161.4a6.12,6.12,0,0,1,1,.09l-4.06,4.06h-15.8a2.64,2.64,0,0,0-2.64,2.64v18.84a2.64,2.64,0,0,0,2.64,2.64H161.4a2.64,2.64,0,0,0,2.64-2.64v-6.38l4.15-4.14v10.52a6.8,6.8,0,0,1-6.79,6.79Z"/><path class="cls-2" d="M169.16,107.7l-14.82,14.82-3.05-3a2.35,2.35,0,0,0-3.33,3.33l4.71,4.71a2.35,2.35,0,0,0,3.33,0L172.49,111a2.35,2.35,0,0,0-3.33-3.33Z"/><path class="cls-2" d="M142.56,182.11a6.79,6.79,0,0,1-6.79-6.78V156.48a6.79,6.79,0,0,1,6.79-6.78H161.4a7.35,7.35,0,0,1,1,.08l-4.06,4.06h-15.8a2.64,2.64,0,0,0-2.64,2.64v18.85a2.64,2.64,0,0,0,2.64,2.64H161.4a2.64,2.64,0,0,0,2.64-2.64V169l4.15-4.15v10.53a6.79,6.79,0,0,1-6.79,6.78Z"/><path class="cls-2" d="M169.16,150.1l-14.82,14.83-3.05-3.05a2.35,2.35,0,0,0-3.33,3.33l4.71,4.72a2.35,2.35,0,0,0,3.33,0l16.49-16.49a2.36,2.36,0,0,0-3.33-3.34Z"/><path class="cls-3" d="M316.77,75.11c0-2.94.73-5.1,2.17-6.47a8,8,0,0,1,10.76,0q2.25,2.1,2.25,6.43t-2.25,6.46a7.86,7.86,0,0,1-10.76,0C317.5,80.15,316.77,78,316.77,75.11ZM330.71,183H317.86V98.1h12.85Z"/><path class="cls-3" d="M416,183V128.07q0-10.38-4.72-15.49t-14.79-5.11q-13.32,0-19.51,7.2t-6.19,23.77V183H358V98.1h10.46l2.09,11.62h.62A26.25,26.25,0,0,1,382.2,100a35.93,35.93,0,0,1,15.87-3.44q15.33,0,23.07,7.39t7.75,23.65V183Z"/><path class="cls-3" d="M513.05,171.58h-.7q-8.89,12.93-26.63,12.93-16.65,0-25.9-11.38t-9.25-32.36q0-21,9.29-32.6t25.86-11.61q17.26,0,26.48,12.54h1l-.54-6.12-.31-6V62.49H525.2V183H514.75Zm-25.71,2.17q13.17,0,19.09-7.16t5.92-23.11v-2.71q0-18-6-25.75t-19.16-7.7q-11.31,0-17.31,8.79t-6,24.81q0,16.26,6,24.54T487.34,173.75Z"/><path class="cls-3" d="M564.54,98.1v55.05q0,10.38,4.72,15.49t14.79,5.11q13.32,0,19.47-7.28t6.16-23.77V98.1h12.85V183H611.92l-1.86-11.38h-.69a25.69,25.69,0,0,1-11,9.6,36.81,36.81,0,0,1-16,3.33q-15.48,0-23.19-7.35t-7.7-23.54V98.1Z"/><path class="cls-3" d="M683.69,184.51q-18.42,0-28.53-11.34t-10.1-32.09q0-21.3,10.26-32.91t29.23-11.61a57.87,57.87,0,0,1,12.23,1.31,40.19,40.19,0,0,1,9.6,3.1l-4,10.92a60,60,0,0,0-9.29-2.83,41.3,41.3,0,0,0-8.9-1.12q-25.86,0-25.86,33,0,15.65,6.3,24t18.7,8.36a57.23,57.23,0,0,0,21.76-4.56V180.1Q696.62,184.51,683.69,184.51Z"/><path class="cls-3" d="M752.68,173.9a45.86,45.86,0,0,0,11.61-1.54v9.83a23.52,23.52,0,0,1-6.15,1.66,46.11,46.11,0,0,1-7.32.66q-24.62,0-24.62-25.94V108.09H714.05V101.9l12.15-5.34,5.42-18.12h7.43V98.1h24.63v10H739.05V158q0,7.66,3.64,11.77T752.68,173.9Z"/><path class="cls-3" d="M777.15,154.24q0-10.69,5.69-18.2t21.25-15.87l-5.81-6.35a43,43,0,0,1-7.58-10.76,25.56,25.56,0,0,1-2.48-11q0-11.08,7.39-17.58T815.47,68q12,0,19,6.27t7,17.34a23.36,23.36,0,0,1-5.42,14.91q-5.42,6.76-19.59,15l35,35.39a62.56,62.56,0,0,0,8-12.16,84.72,84.72,0,0,0,5.81-15.56h7.43a85.12,85.12,0,0,1-16.18,33L877.18,183H866.73l-14.94-15.25a67,67,0,0,1-12.7,10.18,48.87,48.87,0,0,1-12.2,4.92,60.84,60.84,0,0,1-15.06,1.7q-16.17,0-25.43-8T777.15,154.24Zm35.23,23.3a47.68,47.68,0,0,0,18.15-3.36,50.09,50.09,0,0,0,16.22-11.35l-37.39-37.55q-10.53,5.58-15.22,9.49a22.87,22.87,0,0,0-8.94,19.16q0,11.07,7.2,17.34T812.38,177.54ZM796.5,91.91a21.66,21.66,0,0,0,3.1,11.3q3.1,5.19,11.77,13.48,12.32-6.59,17.11-12.31a19.82,19.82,0,0,0,4.8-13.09,15.5,15.5,0,0,0-4.8-11.81q-4.8-4.53-13-4.53-8.82,0-13.9,4.49T796.5,91.91Z"/><path class="cls-3" d="M921.7,173.9a41.39,41.39,0,0,0,6.58-.5,42,42,0,0,0,5-1v9.83a23.73,23.73,0,0,1-6.16,1.66,46.11,46.11,0,0,1-7.32.66q-24.62,0-24.62-25.94V108.09H883.07V101.9l12.15-5.34,5.42-18.12h7.43V98.1H932.7v10H908.07V158q0,7.66,3.64,11.77T921.7,173.9Z"/><path class="cls-3" d="M989,96.56a51.13,51.13,0,0,1,10.15.92l-1.78,11.93a43.42,43.42,0,0,0-9.29-1.16q-10.3,0-17.62,8.36t-7.32,20.83V183H950.27V98.1h10.61l1.47,15.72H963a37.28,37.28,0,0,1,11.38-12.77A25.58,25.58,0,0,1,989,96.56Z"/><path class="cls-3" d="M1067.18,183l-2.55-12.08H1064q-6.35,8-12.66,10.81t-15.76,2.82q-12.61,0-19.78-6.5t-7.16-18.51q0-25.69,41.11-26.94l14.4-.47v-5.26q0-10-4.3-14.75t-13.74-4.76q-10.61,0-24,6.5l-4-9.83a60.4,60.4,0,0,1,13.74-5.34,59.64,59.64,0,0,1,15-1.94q15.18,0,22.49,6.74t7.32,21.6V183Zm-29-9.06q12,0,18.85-6.58t6.85-18.42v-7.67l-12.85.54q-15.33.54-22.11,4.76t-6.77,13.13q0,7,4.22,10.61T1038.15,173.9Z"/><path class="cls-3" d="M1102.1,75.11c0-2.94.73-5.1,2.17-6.47a8,8,0,0,1,10.76,0q2.25,2.1,2.25,6.43T1115,81.57a7.86,7.86,0,0,1-10.76,0C1102.83,80.15,1102.1,78,1102.1,75.11ZM1116,183h-12.85V98.1H1116Z"/><path class="cls-3" d="M1201.36,183V128.07q0-10.38-4.72-15.49t-14.79-5.11q-13.32,0-19.51,7.2t-6.19,23.77V183h-12.86V98.1h10.46l2.09,11.62h.62a26.25,26.25,0,0,1,11.07-9.72,35.93,35.93,0,0,1,15.87-3.44q15.33,0,23.07,7.39t7.75,23.65V183Z"/></g></g></svg>